<svg width="477" height="362" viewBox="0 0 477 362" fill="none" xmlns="http://www.w3.org/2000/svg">
<g clip-path="url(#clip0_23_3)">
<path d="M240 0H27.2122C19.9975 0.00811963 13.0807 2.87631 7.97921 7.97532C2.87769 13.0743 0.00810565 19.9877 0 27.1988V276.933C0.00810716 284.144 2.8777 291.058 7.97922 296.157C13.0807 301.256 19.9975 304.124 27.2122 304.132H240C247.215 304.124 254.132 301.256 259.233 296.157C264.335 291.058 267.205 284.144 267.213 276.933V27.1988C267.205 19.9877 264.335 13.0743 259.233 7.97532C254.132 2.87631 247.215 0.00811963 240 0V0Z" fill="#F2F2F2"/>
<path d="M240.001 7.82996H27.2122C22.0745 7.83571 17.1488 9.8782 13.5159 13.5093C9.88301 17.1404 7.83951 22.0636 7.83374 27.1988V276.933C7.83951 282.068 9.88302 286.992 13.5159 290.623C17.1489 294.254 22.0745 296.296 27.2122 296.302H240.001C245.138 296.296 250.064 294.254 253.697 290.623C257.33 286.991 259.373 282.068 259.379 276.933V27.1988C259.373 22.0637 257.33 17.1405 253.697 13.5094C250.064 9.87828 245.138 7.83577 240.001 7.82996V7.82996Z" fill="white"/>
<path d="M207.976 80.446H100.37C99.1685 80.446 98.0158 79.9688 97.166 79.1194C96.3162 78.27 95.8387 77.1179 95.8387 75.9167C95.8387 74.7154 96.3162 73.5634 97.166 72.7139C98.0158 71.8645 99.1685 71.3873 100.37 71.3873H207.976C208.571 71.3873 209.16 71.5045 209.71 71.7321C210.26 71.9597 210.759 72.2934 211.18 72.7139C211.601 73.1345 211.935 73.6338 212.163 74.1834C212.39 74.7329 212.507 75.3219 212.507 75.9167C212.507 76.5115 212.39 77.1004 212.163 77.65C211.935 78.1995 211.601 78.6988 211.18 79.1194C210.759 79.54 210.26 79.8736 209.71 80.1012C209.16 80.3288 208.571 80.446 207.976 80.446V80.446Z" fill="#F2F2F2"/>
<path d="M226.669 95.7325H100.37C99.1693 95.7311 98.018 95.2534 97.1693 94.4041C96.3205 93.5548 95.8438 92.4035 95.8438 91.2032C95.8438 90.0028 96.3205 88.8515 97.1693 88.0022C98.018 87.153 99.1693 86.6752 100.37 86.6738H226.669C227.87 86.6752 229.021 87.153 229.87 88.0022C230.718 88.8515 231.195 90.0028 231.195 91.2032C231.195 92.4035 230.718 93.5548 229.87 94.4041C229.021 95.2534 227.87 95.7311 226.669 95.7325V95.7325Z" fill="#F2F2F2"/>
<path d="M207.976 148.952H100.37C99.1685 148.952 98.0158 148.475 97.166 147.625C96.3162 146.776 95.8387 145.624 95.8387 144.423C95.8387 143.222 96.3162 142.069 97.166 141.22C98.0158 140.371 99.1685 139.893 100.37 139.893H207.976C208.571 139.893 209.16 140.011 209.71 140.238C210.26 140.466 210.759 140.799 211.18 141.22C211.601 141.641 211.935 142.14 212.163 142.689C212.39 143.239 212.507 143.828 212.507 144.423C212.507 145.018 212.39 145.607 212.163 146.156C211.935 146.706 211.601 147.205 211.18 147.625C210.759 148.046 210.26 148.38 209.71 148.607C209.16 148.835 208.571 148.952 207.976 148.952V148.952Z" fill="#F2F2F2"/>
<path d="M226.669 164.239H100.37C99.1693 164.237 98.018 163.759 97.1693 162.91C96.3205 162.061 95.8438 160.91 95.8438 159.709C95.8438 158.509 96.3205 157.358 97.1693 156.508C98.018 155.659 99.1693 155.181 100.37 155.18H226.669C227.87 155.181 229.021 155.659 229.87 156.508C230.718 157.358 231.195 158.509 231.195 159.709C231.195 160.91 230.718 162.061 229.87 162.91C229.021 163.759 227.87 164.237 226.669 164.239V164.239Z" fill="#F2F2F2"/>
<path d="M207.976 217.458H100.37C99.1685 217.458 98.0158 216.981 97.166 216.131C96.3162 215.282 95.8387 214.13 95.8387 212.929C95.8387 211.727 96.3162 210.575 97.166 209.726C98.0158 208.877 99.1685 208.399 100.37 208.399H207.976C208.571 208.399 209.161 208.515 209.712 208.743C210.262 208.97 210.762 209.304 211.184 209.724C211.605 210.145 211.939 210.644 212.167 211.194C212.395 211.744 212.513 212.334 212.513 212.929C212.513 213.524 212.395 214.113 212.167 214.663C211.939 215.213 211.605 215.713 211.184 216.133C210.762 216.554 210.262 216.887 209.712 217.115C209.161 217.342 208.571 217.459 207.976 217.458V217.458Z" fill="#F2F2F2"/>
<path d="M226.669 232.745H100.37C99.1693 232.743 98.018 232.265 97.1693 231.416C96.3205 230.567 95.8438 229.416 95.8438 228.215C95.8438 227.015 96.3205 225.864 97.1693 225.014C98.018 224.165 99.1693 223.687 100.37 223.686H226.669C227.87 223.687 229.021 224.165 229.87 225.014C230.718 225.864 231.195 227.015 231.195 228.215C231.195 229.416 230.718 230.567 229.87 231.416C229.021 232.265 227.87 232.743 226.669 232.745Z" fill="#F2F2F2"/>
<path d="M76.266 102.672H38.1854C37.6093 102.671 37.057 102.442 36.6496 102.035C36.2423 101.628 36.0131 101.076 36.0125 100.5V66.6198C36.0131 66.0439 36.2423 65.4919 36.6496 65.0847C37.057 64.6776 37.6093 64.4486 38.1854 64.4479H76.266C76.8421 64.4486 77.3944 64.6776 77.8018 65.0847C78.2091 65.4919 78.4383 66.0439 78.4389 66.6198V100.5C78.4383 101.076 78.2091 101.628 77.8018 102.035C77.3944 102.442 76.8421 102.671 76.266 102.672Z" fill="#E6E6E6"/>
<path d="M76.266 171.178H38.1854C37.6093 171.177 37.057 170.948 36.6496 170.541C36.2423 170.134 36.0131 169.582 36.0125 169.006V135.126C36.0131 134.55 36.2423 133.998 36.6496 133.591C37.057 133.184 37.6093 132.955 38.1854 132.954H76.266C76.8421 132.955 77.3944 133.184 77.8018 133.591C78.2091 133.998 78.4383 134.55 78.4389 135.126V169.006C78.4382 169.582 78.2091 170.134 77.8018 170.541C77.3944 170.948 76.8421 171.177 76.266 171.178V171.178Z" fill="#E6E6E6"/>
<path d="M76.266 239.684H38.1854C37.6093 239.683 37.057 239.454 36.6496 239.047C36.2423 238.64 36.0131 238.088 36.0125 237.512V203.632C36.0131 203.056 36.2423 202.504 36.6496 202.097C37.057 201.69 37.6093 201.461 38.1854 201.46H76.266C76.8421 201.461 77.3944 201.69 77.8018 202.097C78.2091 202.504 78.4383 203.056 78.4389 203.632V237.512C78.4383 238.088 78.2091 238.64 77.8018 239.047C77.3944 239.454 76.8421 239.683 76.266 239.684Z" fill="#E6E6E6"/>
<path d="M427.453 236.19L429.141 221.434L437.605 147.449L439.293 132.693C440.105 125.528 438.04 118.334 433.551 112.688C429.062 107.043 422.516 103.408 415.349 102.581L223.288 80.6297C216.119 79.8185 208.921 81.8827 203.273 86.3694C197.625 90.8561 193.988 97.3989 193.16 104.562L193.156 104.6L181.324 208.021L181.32 208.059C180.508 215.224 182.573 222.419 187.062 228.064C191.551 233.709 198.097 237.344 205.264 238.171L397.325 260.123C404.494 260.934 411.692 258.87 417.34 254.383C422.988 249.896 426.625 243.353 427.453 236.19V236.19Z" fill="#E6E6E6"/>
<path d="M419.67 235.301L421.669 217.823L429.511 149.281L431.51 131.804C432.088 126.701 430.618 121.578 427.421 117.558C424.224 113.538 419.563 110.949 414.459 110.36L222.398 88.4088C217.293 87.8311 212.167 89.3011 208.145 92.4962C204.122 95.6913 201.533 100.351 200.943 105.452L200.939 105.49L189.107 208.91L189.103 208.949C188.525 214.051 189.995 219.174 193.192 223.195C196.389 227.215 201.05 229.803 206.154 230.392L398.215 252.343C403.32 252.921 408.446 251.451 412.468 248.256C416.491 245.061 419.08 240.402 419.67 235.301V235.301Z" fill="white"/>
<path d="M388.233 141.527L281.324 129.309C280.732 129.242 280.159 129.059 279.638 128.77C279.117 128.482 278.658 128.094 278.288 127.628C277.917 127.162 277.642 126.628 277.478 126.056C277.314 125.484 277.264 124.885 277.332 124.294C277.399 123.702 277.583 123.13 277.872 122.61C278.161 122.089 278.55 121.631 279.016 121.261C279.482 120.891 280.017 120.616 280.59 120.453C281.162 120.289 281.762 120.24 282.353 120.309L389.262 132.527C390.455 132.665 391.545 133.27 392.292 134.211C393.039 135.151 393.381 136.349 393.245 137.542C393.109 138.734 392.504 139.824 391.564 140.571C390.624 141.319 389.426 141.663 388.233 141.527Z" fill="#E6E6E6"/>
<path d="M405.067 158.838L279.586 144.496C278.994 144.429 278.422 144.246 277.901 143.958C277.38 143.669 276.921 143.281 276.55 142.815C276.18 142.35 275.904 141.815 275.74 141.243C275.576 140.671 275.527 140.072 275.594 139.481C275.662 138.89 275.846 138.318 276.135 137.797C276.424 137.277 276.812 136.819 277.279 136.448C277.745 136.078 278.28 135.804 278.852 135.64C279.425 135.477 280.024 135.428 280.616 135.496L406.096 149.838C406.688 149.905 407.26 150.088 407.78 150.377C408.3 150.666 408.759 151.054 409.129 151.519C409.499 151.985 409.774 152.519 409.938 153.091C410.102 153.663 410.151 154.261 410.084 154.852C410.016 155.443 409.833 156.015 409.544 156.535C409.255 157.055 408.867 157.513 408.401 157.883C407.935 158.253 407.401 158.528 406.829 158.692C406.257 158.856 405.658 158.905 405.067 158.838Z" fill="#E6E6E6"/>
<path d="M401.568 189.129L216.571 167.985C215.378 167.847 214.288 167.242 213.541 166.302C212.794 165.362 212.452 164.164 212.588 162.971C212.724 161.778 213.329 160.688 214.269 159.941C215.209 159.194 216.407 158.85 217.6 158.985L402.598 180.129C403.189 180.196 403.762 180.379 404.283 180.667C404.804 180.955 405.263 181.344 405.633 181.809C406.004 182.275 406.279 182.809 406.443 183.381C406.607 183.954 406.657 184.552 406.589 185.144C406.522 185.735 406.338 186.307 406.049 186.827C405.76 187.348 405.371 187.806 404.905 188.176C404.439 188.546 403.904 188.821 403.331 188.984C402.759 189.148 402.16 189.197 401.568 189.129H401.568Z" fill="#E6E6E6"/>
<path d="M400.425 204.384L214.833 183.172C213.64 183.035 212.55 182.429 211.804 181.489C211.057 180.549 210.714 179.351 210.85 178.158C210.987 176.966 211.592 175.876 212.531 175.129C213.471 174.381 214.67 174.037 215.863 174.172L401.455 195.384C402.648 195.522 403.738 196.127 404.484 197.067C405.231 198.007 405.574 199.205 405.438 200.398C405.301 201.591 404.697 202.681 403.757 203.428C402.817 204.175 401.619 204.519 400.425 204.384V204.384Z" fill="#E6E6E6"/>
<path d="M398.163 218.889L213.166 197.745C212.574 197.678 212.002 197.495 211.481 197.207C210.96 196.918 210.501 196.53 210.13 196.064C209.759 195.599 209.484 195.064 209.32 194.492C209.156 193.92 209.106 193.321 209.174 192.73C209.242 192.139 209.425 191.566 209.714 191.046C210.003 190.526 210.392 190.067 210.859 189.697C211.325 189.327 211.86 189.052 212.432 188.889C213.005 188.726 213.604 188.677 214.196 188.745L399.193 209.889C400.386 210.026 401.476 210.632 402.223 211.572C402.969 212.512 403.312 213.71 403.176 214.903C403.039 216.095 402.435 217.185 401.495 217.932C400.555 218.68 399.357 219.024 398.163 218.889V218.889Z" fill="#E6E6E6"/>
<path d="M397.02 234.144L211.429 212.932C210.236 212.795 209.146 212.189 208.399 211.249C207.652 210.309 207.309 209.111 207.446 207.918C207.582 206.726 208.187 205.636 209.127 204.889C210.067 204.141 211.265 203.797 212.458 203.932L398.05 225.144C398.642 225.211 399.214 225.394 399.735 225.682C400.256 225.971 400.715 226.359 401.086 226.825C401.457 227.29 401.732 227.825 401.896 228.397C402.06 228.969 402.11 229.568 402.042 230.159C401.974 230.75 401.791 231.323 401.502 231.843C401.213 232.363 400.824 232.822 400.358 233.192C399.891 233.562 399.356 233.837 398.784 234C398.211 234.163 397.612 234.212 397.02 234.144V234.144Z" fill="#E6E6E6"/>
<path d="M254.849 148.654L217.015 144.329C216.443 144.263 215.92 143.973 215.562 143.522C215.203 143.072 215.038 142.497 215.103 141.925L218.954 108.264C219.02 107.692 219.311 107.17 219.762 106.811C220.213 106.453 220.787 106.288 221.36 106.353L259.194 110.677C259.766 110.743 260.289 111.033 260.647 111.484C261.006 111.935 261.171 112.509 261.106 113.082L257.255 146.743C257.189 147.315 256.898 147.837 256.447 148.195C255.996 148.554 255.422 148.718 254.849 148.654V148.654Z" fill="#79DAE8"/>
<path d="M476.435 361.91H352.602C352.452 361.91 352.308 361.851 352.202 361.745C352.096 361.639 352.036 361.495 352.036 361.345C352.036 361.195 352.096 361.052 352.202 360.946C352.308 360.84 352.452 360.78 352.602 360.78H476.435C476.585 360.78 476.728 360.84 476.834 360.946C476.94 361.052 477 361.195 477 361.345C477 361.495 476.94 361.639 476.834 361.745C476.728 361.851 476.585 361.91 476.435 361.91Z" fill="#3F3D56"/>
<path d="M429.936 145.995C429.745 146.746 429.722 147.529 429.868 148.29C430.013 149.051 430.324 149.771 430.777 150.399C431.231 151.027 431.817 151.548 432.495 151.925C433.172 152.302 433.923 152.527 434.696 152.582L438.527 164.071L446.081 163.447L440.443 147.298C440.45 145.994 439.978 144.732 439.116 143.752C438.255 142.773 437.064 142.143 435.768 141.982C434.473 141.821 433.164 142.141 432.089 142.881C431.014 143.62 430.248 144.728 429.936 145.995V145.995Z" fill="#FFB8B8"/>
<path d="M435.72 221.233C436.606 222.045 437.69 222.61 438.863 222.87C440.037 223.13 441.258 223.076 442.404 222.714C443.55 222.351 444.58 221.693 445.39 220.806C446.2 219.918 446.761 218.833 447.018 217.659L453 190.264C454.023 185.579 453.782 180.707 452.302 176.146L445.301 154.57C445.2 154.26 445.034 153.976 444.813 153.737C444.593 153.497 444.323 153.308 444.023 153.182C443.722 153.057 443.398 152.997 443.073 153.008C442.747 153.019 442.428 153.1 442.137 153.246L437.567 155.533C437.094 155.769 436.719 156.165 436.507 156.649C436.295 157.134 436.26 157.677 436.408 158.185L436.869 159.769C440.7 172.938 440.901 186.896 437.45 200.17L433.729 214.485C433.417 215.685 433.438 216.946 433.789 218.135C434.14 219.324 434.807 220.394 435.72 221.233Z" fill="#79DAE8"/>
<path d="M411.783 356L405.319 356L402.245 331.078L411.786 331.079L411.783 356Z" fill="#FFB8B8"/>
<path d="M400.701 354.153H413.168V361.999H392.852C392.852 360.969 393.055 359.949 393.449 358.997C393.844 358.045 394.422 357.18 395.151 356.451C395.88 355.723 396.745 355.145 397.697 354.751C398.65 354.356 399.671 354.153 400.701 354.153V354.153Z" fill="#2F2E41"/>
<path d="M446.627 356L440.162 356L437.088 331.078L446.629 331.079L446.627 356Z" fill="#FFB8B8"/>
<path d="M435.545 354.153H448.012V361.999H427.695C427.695 360.969 427.898 359.949 428.293 358.997C428.687 358.045 429.266 357.18 429.994 356.451C430.723 355.723 431.589 355.145 432.541 354.751C433.493 354.356 434.514 354.153 435.545 354.153V354.153Z" fill="#2F2E41"/>
<path d="M427.695 178.834C435.365 178.834 441.583 172.619 441.583 164.953C441.583 157.286 435.365 151.072 427.695 151.072C420.025 151.072 413.807 157.286 413.807 164.953C413.807 172.619 420.025 178.834 427.695 178.834Z" fill="#FFB8B8"/>
<path d="M380.207 255.48C380.304 254.712 380.569 253.974 380.982 253.318C381.395 252.663 381.947 252.106 382.599 251.687C383.251 251.267 383.987 250.996 384.755 250.892C385.523 250.788 386.305 250.853 387.045 251.084L394.806 241.784L401.611 245.12L390.466 258.099C389.996 259.316 389.096 260.319 387.936 260.917C386.776 261.515 385.437 261.667 384.173 261.344C382.908 261.021 381.806 260.246 381.075 259.165C380.344 258.085 380.036 256.773 380.207 255.48V255.48Z" fill="#FFB8B8"/>
<path d="M431.077 178.833C433.167 178.879 435.243 178.481 437.168 177.667C439.094 176.853 440.825 175.641 442.249 174.111C443.672 172.58 444.756 170.766 445.428 168.787C446.1 166.808 446.345 164.71 446.148 162.63C445.951 160.549 445.315 158.534 444.284 156.717C443.252 154.899 441.847 153.321 440.161 152.085C438.475 150.849 436.547 149.983 434.503 149.545C432.458 149.107 430.345 149.107 428.3 149.543C425.246 147.69 421.695 146.443 418.136 146.76C414.577 147.077 411.058 149.189 409.727 152.503C408.396 155.817 409.826 160.186 413.135 161.533C415.256 162.397 417.652 161.978 419.916 161.63C422.18 161.281 424.65 161.054 426.62 162.222C428.591 163.389 429.476 166.52 427.712 167.98C426.776 168.784 426.108 169.855 425.797 171.048C425.485 172.242 425.545 173.502 425.968 174.66C426.855 176.953 429.275 178.794 431.077 178.833Z" fill="#2F2E41"/>
<path d="M448.307 254.932L450.771 348.376C450.779 348.688 450.723 348.998 450.605 349.286C450.488 349.575 450.312 349.836 450.089 350.054C449.866 350.272 449.6 350.441 449.309 350.551C449.017 350.661 448.706 350.71 448.395 350.694L440.279 350.28C439.761 350.253 439.268 350.05 438.883 349.704C438.497 349.357 438.242 348.889 438.161 348.377L428.508 287.684C428.467 287.424 428.336 287.187 428.139 287.013C427.941 286.839 427.689 286.74 427.426 286.732C427.163 286.724 426.906 286.807 426.698 286.968C426.49 287.13 426.345 287.358 426.287 287.615L413.221 346.051C413.151 346.364 413.016 346.658 412.824 346.914C412.632 347.17 412.388 347.383 412.107 347.537C411.827 347.692 411.517 347.786 411.198 347.812C410.879 347.838 410.558 347.796 410.256 347.688L402.202 347.197C401.736 347.031 401.337 346.718 401.067 346.304C400.796 345.89 400.669 345.399 400.704 344.906L407.735 254.047L448.307 254.932Z" fill="#2F2E41"/>
<path d="M452.261 210.548C453.62 196.388 443.203 183.58 429.006 182.572C422.889 182.138 413.393 181.983 410.262 189.997C400.832 214.137 417.34 213.55 411.653 234.466C405.965 255.381 400.941 256.58 408.746 258.09C416.55 259.6 451.644 268.516 450.203 253.795C449.317 244.746 450.905 224.674 452.261 210.548Z" fill="#79DAE8"/>
<path d="M413.063 187.541C414.184 187.107 415.4 186.977 416.587 187.163C417.775 187.349 418.892 187.844 419.826 188.6C420.761 189.355 421.48 190.344 421.91 191.466C422.34 192.587 422.467 193.803 422.277 194.989L417.844 222.677C417.086 227.412 415.083 231.86 412.04 235.567L397.644 253.101C397.437 253.352 397.178 253.556 396.886 253.699C396.593 253.841 396.273 253.919 395.947 253.927C395.621 253.934 395.298 253.871 394.999 253.742C394.7 253.613 394.432 253.421 394.214 253.179L390.795 249.384C390.441 248.991 390.236 248.486 390.216 247.957C390.195 247.429 390.361 246.91 390.684 246.491L391.691 245.185C400.066 234.322 405.35 221.399 406.984 207.782L408.746 193.097C408.893 191.866 409.373 190.699 410.134 189.72C410.894 188.742 411.907 187.988 413.063 187.541V187.541Z" fill="#79DAE8"/>
</g>
<defs>
<clipPath id="clip0_23_3">
<rect width="477" height="362" fill="white"/>
</clipPath>
</defs>
</svg>
