<svg width="133" height="81" viewBox="0 0 133 81" fill="none" xmlns="http://www.w3.org/2000/svg">
<path d="M0 43.2839C16.74 36.1592 66.744 26.1846 132.84 43.2839C121.5 28.2428 36.45 15.5767 0 43.2839Z" fill="#05668D"/>
<path d="M81 36.4151L92.34 37.2068V52.2478C92.61 55.4144 95.58 56.9976 101.25 58.5809L76.8287 59.3268C76.2995 59.4252 75.7848 59.4281 75.33 59.3725L76.8287 59.3268C78.8126 58.9579 81 57.2473 81 52.2478V36.4151Z" fill="#05668D"/>
<path fill-rule="evenodd" clip-rule="evenodd" d="M92.34 26.9855C88.665 26.509 84.87 26.125 81 25.8475V6.33305C64.8 3.16652 60.75 10.0273 59.94 13.4578L58.32 12.6661L61.56 1.58325C65.448 2.84987 97.74 2.11101 113.4 1.58325V13.2859C112.794 6.57812 99.3095 5.8285 92.34 6.33305V26.9855ZM113.4 14.2494V13.2859C113.428 13.5943 113.428 13.9153 113.4 14.2494Z" fill="#80ED99"/>
<path fill-rule="evenodd" clip-rule="evenodd" d="M42.2264 26.5219C37.9453 27.1732 33.7561 28.0118 29.7198 29.0567C9.05099 5.90765 40.0892 -4.40795 54.27 1.75181V14.418H52.65C45.6835 -9.03362 16.526 10.8903 42.2264 26.5219Z" fill="#80ED99"/>
<path fill-rule="evenodd" clip-rule="evenodd" d="M37.2771 37.1599C41.214 36.816 45.3668 36.56 49.722 36.4151C52.1477 48.1923 48.6226 66.9778 16.2 57.2278L17.01 42.9784H18.63C16.2439 60.0797 51.3456 60.3887 37.2771 37.1599Z" fill="#05668D"/>
<path d="M38.1071 78.42H36.0511L32.3875 72.3078H32.2567V75.2985L32.3127 78.42H30.5744L30.6866 75.7658L30.6118 69.4107H32.6492L36.3127 75.5041H36.4436L36.3688 69.4854L38.1445 69.3733L38.0324 75.635L38.1071 78.42ZM46.7122 71.7845C47.7091 71.7845 48.4567 72.0649 48.9552 72.6256C49.4536 73.1864 49.7029 74.015 49.7029 75.1116C49.7029 76.2082 49.4287 77.0617 48.8804 77.6723C48.3446 78.2705 47.5845 78.5695 46.6001 78.5695C45.6281 78.5695 44.8867 78.2892 44.3758 77.7284C43.8773 77.1552 43.6281 76.3203 43.6281 75.2237C43.6281 74.1272 43.896 73.2798 44.4318 72.6817C44.9677 72.0835 45.7278 71.7845 46.7122 71.7845ZM46.6561 73.0368C46.2075 73.0368 45.8835 73.1926 45.6842 73.5041C45.4848 73.8032 45.3851 74.3328 45.3851 75.0929C45.3851 75.853 45.4848 76.4138 45.6842 76.7751C45.8835 77.124 46.2138 77.2985 46.6748 77.2985C47.1359 77.2985 47.4661 77.1552 47.6655 76.8686C47.8648 76.582 47.9645 76.0586 47.9645 75.2985C47.9645 74.5384 47.8586 73.9714 47.6468 73.5976C47.4349 73.2237 47.1047 73.0368 46.6561 73.0368ZM57.6254 77.0368C57.912 77.0368 58.2173 76.9621 58.5413 76.8125L58.6908 76.9621L58.5039 78.0462C58.0429 78.2954 57.5631 78.4449 57.0647 78.4948C55.8061 78.3702 55.1706 77.7596 55.1581 76.663L55.2329 75.4854V73.0742H54.3544L54.2796 72.9994L54.3731 71.9714H55.1955V70.8873L56.8965 70.3452L57.0273 70.4574L56.9712 71.9714H58.6535L58.7095 72.0649L58.6348 73.0742H56.9525L56.8778 76.2144C56.8778 76.5135 56.9276 76.7253 57.0273 76.8499C57.1394 76.9745 57.3388 77.0368 57.6254 77.0368ZM64.6502 68.7191C64.9493 68.7191 65.1798 68.8063 65.3418 68.9807C65.5038 69.1427 65.5848 69.3795 65.5848 69.691C65.5848 69.9901 65.4976 70.2331 65.3231 70.42C65.1487 70.6069 64.9057 70.7004 64.5941 70.7004C64.2951 70.7004 64.0583 70.6194 63.8839 70.4574C63.7219 70.2829 63.6409 70.0462 63.6409 69.7471C63.6409 69.448 63.7343 69.205 63.9212 69.0181C64.1082 68.8188 64.3511 68.7191 64.6502 68.7191ZM65.5287 78.42H63.6596L63.753 75.7284L63.6782 72.0275L65.5474 71.8779L65.4166 75.5602L65.5287 78.42ZM73.8863 71.7845C74.5343 71.7845 75.1075 71.9029 75.6059 72.1396L75.3069 73.6163L75.1386 73.691C74.6651 73.4293 74.229 73.2985 73.8302 73.2985C73.4315 73.2985 73.1137 73.4543 72.877 73.7658C72.6402 74.0649 72.5218 74.5197 72.5218 75.1303C72.5218 75.7409 72.6464 76.2206 72.8956 76.5695C73.1573 76.9184 73.5062 77.0929 73.9424 77.0929C74.391 77.0929 74.8707 76.9745 75.3816 76.7378L75.5125 76.8499L75.3442 78.2892C74.7835 78.4636 74.2041 78.5571 73.6059 78.5695C72.7087 78.5695 72.0109 78.2767 71.5125 77.691C71.014 77.1054 70.7648 76.2829 70.7648 75.2237C70.7648 74.1521 71.039 73.311 71.5872 72.7004C72.1355 72.0898 72.9019 71.7845 73.8863 71.7845ZM81.5565 68.7191C81.8555 68.7191 82.0861 68.8063 82.2481 68.9807C82.41 69.1427 82.491 69.3795 82.491 69.691C82.491 69.9901 82.4038 70.2331 82.2294 70.42C82.0549 70.6069 81.8119 70.7004 81.5004 70.7004C81.2013 70.7004 80.9646 70.6194 80.7901 70.4574C80.6281 70.2829 80.5471 70.0462 80.5471 69.7471C80.5471 69.448 80.6406 69.205 80.8275 69.0181C81.0144 68.8188 81.2574 68.7191 81.5565 68.7191ZM82.435 78.42H80.5658L80.6593 75.7284L80.5845 72.0275L82.4537 71.8779L82.3228 75.5602L82.435 78.42ZM90.4935 71.7845C91.3284 71.7845 91.9514 71.9465 92.3626 72.2705C92.7739 72.5945 92.9795 73.0431 92.9795 73.6163C92.9795 73.7783 92.9483 74.3078 92.886 75.205C92.886 75.205 92.8673 75.7159 92.8299 76.7378C92.8299 76.8997 92.8486 77.0119 92.886 77.0742C92.9234 77.124 92.9982 77.149 93.1103 77.149C93.2225 77.149 93.3533 77.1303 93.5028 77.0929L93.6524 77.205L93.4654 78.177C93.1664 78.3639 92.8299 78.4823 92.4561 78.5321C91.858 78.4823 91.4966 78.1396 91.372 77.5041H91.2785C90.805 78.0026 90.3253 78.3515 89.8393 78.5508C89.1664 78.5384 88.6368 78.3577 88.2505 78.0088C87.8642 77.6599 87.6711 77.1926 87.6711 76.6069C87.6711 75.6973 88.1508 75.149 89.1103 74.9621L91.2598 74.5695V73.9901C91.2598 73.3795 90.9732 73.0742 90.4 73.0742C89.8268 73.0742 89.1539 73.3421 88.3813 73.8779L88.2318 73.8032L88.0262 72.5695C88.8486 72.0462 89.6711 71.7845 90.4935 71.7845ZM89.7645 75.8219C89.4779 75.8842 89.3346 76.0586 89.3346 76.3452C89.3346 76.906 89.5776 77.1864 90.0636 77.1864C90.425 77.1864 90.8112 76.9683 91.2225 76.5321L91.2598 75.4854L89.7645 75.8219ZM100.894 71.8032C101.605 71.7907 102.24 71.8966 102.801 72.1209L102.558 73.4854L102.334 73.5602C101.773 73.1988 101.262 73.0181 100.801 73.0181C100.577 73.0181 100.396 73.0804 100.259 73.205C100.134 73.3172 100.072 73.4605 100.072 73.635C100.072 73.8094 100.159 73.9589 100.334 74.0835C100.508 74.2082 100.782 74.3452 101.156 74.4948C101.53 74.6443 101.835 74.7938 102.072 74.9434C102.321 75.0804 102.533 75.2736 102.708 75.5228C102.882 75.7596 102.969 76.0649 102.969 76.4387C102.969 76.8125 102.876 77.1614 102.689 77.4854C102.253 78.2082 101.474 78.5695 100.352 78.5695C99.6795 78.5695 98.9817 78.4262 98.259 78.1396L98.4833 76.6817L98.6515 76.5695C98.9381 76.8188 99.2621 77.0181 99.6235 77.1677C99.9848 77.3047 100.296 77.3733 100.558 77.3733C100.82 77.3733 101.019 77.311 101.156 77.1864C101.293 77.0617 101.362 76.9122 101.362 76.7378C101.362 76.5508 101.275 76.3951 101.1 76.2705C100.926 76.1334 100.651 75.9901 100.278 75.8406C99.9038 75.6786 99.5985 75.529 99.3618 75.392C98.7636 75.0555 98.4646 74.5633 98.4646 73.9153C98.4646 73.2673 98.6889 72.7564 99.1375 72.3826C99.5985 71.9963 100.184 71.8032 100.894 71.8032Z" fill="#05668D"/>
</svg>
