<svg width="133" height="60" viewBox="0 0 133 60" fill="none" xmlns="http://www.w3.org/2000/svg">
<path d="M0 43.2839C16.74 36.1592 66.744 26.1846 132.84 43.2839C121.5 28.2428 36.45 15.5767 0 43.2839Z" fill="#05668D"/>
<path d="M81 36.4152L92.34 37.2068V52.2478C92.61 55.4144 95.58 56.9976 101.25 58.5809L76.8287 59.3268C76.2995 59.4252 75.7848 59.4281 75.33 59.3725L76.8287 59.3268C78.8126 58.9579 81 57.2473 81 52.2478V36.4152Z" fill="#05668D"/>
<path fill-rule="evenodd" clip-rule="evenodd" d="M92.34 26.9855C88.665 26.509 84.87 26.125 81 25.8475V6.33305C64.8 3.16652 60.75 10.0273 59.94 13.4578L58.32 12.6661L61.56 1.58325C65.448 2.84987 97.74 2.11101 113.4 1.58325V13.2859C112.794 6.57812 99.3095 5.8285 92.34 6.33305V26.9855ZM113.4 14.2494V13.2859C113.428 13.5943 113.428 13.9153 113.4 14.2494Z" fill="#80ED99"/>
<path fill-rule="evenodd" clip-rule="evenodd" d="M42.2264 26.5219C37.9453 27.1732 33.7561 28.0118 29.7199 29.0567C9.05101 5.90765 40.0892 -4.40795 54.27 1.75181V14.418H52.65C45.6836 -9.03362 16.526 10.8903 42.2264 26.5219Z" fill="#80ED99"/>
<path fill-rule="evenodd" clip-rule="evenodd" d="M37.277 37.1599C41.214 36.816 45.3667 36.5601 49.7219 36.4152C52.1477 48.1924 48.6226 66.9779 16.2 57.2279L17.01 42.9785H18.63C16.2439 60.0798 51.3456 60.3887 37.277 37.1599Z" fill="#05668D"/>
</svg>
